<svg id="Layer_1" data-name="Layer 1" xmlns="http://www.w3.org/2000/svg" viewBox="0 0 421.32 161.79"><defs><style>.cls-1{fill:#f70;}</style></defs><path d="M3.16,2.36H23c10.36,0,14,1,17.84,4.95,4.26,4.49,6.33,10.36,6.33,17.84,0,10.35-2.88,16.22-10,20.71L48.73,79.12H32.16L23.41,49H18.58V79.12H3.16ZM23,36.31c5.76,0,8.52-3.68,8.52-11.16,0-7.14-2.76-10.7-8.52-10.7H18.58V36.31Z"/><path d="M56.09,2.36H71.86V79.12H56.09Z"/><path d="M128.59,79.12H121.8L120,69.91c-3.57,7.71-7.6,10.36-15.31,10.36-15.65,0-23.47-13-23.47-38.55,0-26.35,8.74-40.51,25.08-40.51,13.24,0,20.6,8.63,22.21,26.12l-13,2.31c-1.73-11.86-3.57-14.73-9.21-14.73-6.9,0-8.86,5.87-8.86,27.5,0,18.06,2.31,24.16,9.09,24.16,5.87,0,8.4-4.49,8.4-15.19h-9.55V38.61h23.25Z"/><path d="M166.22,32.63V2.36H182V79.12H166.22v-33H154.48v33H138.72V2.36h15.76V32.63Z"/><path d="M216.5,79.12H200.74V16.86H188.19V2.36H229.5v14.5h-13Z"/><path d="M272.83,24c-1.5-6.1-4.26-9-8.63-9-4.14,0-6.68,2.88-6.68,7.48a7.42,7.42,0,0,0,2.88,6.33c2,1.5,2,1.5,10.7,5.64C281.57,39.3,285.83,45.63,285.83,56c0,14.84-9,24.28-23.24,24.28-12.66,0-20-6.68-22.56-20.72l12.55-4.37c1.84,8.29,4.6,11.28,10.12,11.28,4.72,0,7.71-3.11,7.71-8.06A8.43,8.43,0,0,0,268,52.3c-1.49-1.38-1.49-1.38-10.58-5.86-10-4.95-14.62-11.74-14.62-21.87,0-13.35,9-23.36,21-23.36,10.58,0,17.37,5.76,20.94,17.72Z"/><path d="M321,2.36l17.38,76.76H322.54l-3.11-16.57H304.24l-3.11,16.57h-14L304.7,2.36Zm-7.59,27.28a66,66,0,0,1-1.61-12.89c-.7,5.06-1.15,8.51-1.85,12.2l-4.14,21.17H317.7Z"/><path d="M343.14,2.36H358.9V79.12H343.14Z"/><path d="M370.64,2.36h14.73c11.73,0,16.91,1.27,22,5.3,7.14,5.87,10.82,16.91,10.82,32.1,0,16.57-3.91,28.19-11.62,34.52-4.14,3.34-8.75,4.84-15.3,4.84h-20.6Zm20,63.29c3.91,0,6.44-1,7.82-3.1,2.08-3.34,3-10.36,3-21.64,0-10.24-1-17.83-2.77-21.29-1.49-2.64-4-3.91-8-3.91h-4.6V65.65Z"/><path class="cls-1" d="M18.93,116.05H35.84v12.77H18.93v30.61H3.16V82.68H40.9V96.14h-22Z"/><path class="cls-1" d="M46.31,82.68h19.8c10.35,0,14,1,17.83,4.94,4.26,4.49,6.33,10.36,6.33,17.84,0,10.36-2.88,16.22-10,20.71l11.62,33.26H75.31l-8.74-30.15H61.73v30.15H46.31Zm19.8,33.94c5.75,0,8.51-3.68,8.51-11.16,0-7.13-2.76-10.7-8.51-10.7H61.73v21.86Z"/><path class="cls-1" d="M115,114h18.64v12.78H115V146h24.28v13.47h-40V82.68h40V96.14H115Z"/><path class="cls-1" d="M161.38,82.68v48.78c0,11.74,1.73,15,8.29,15a6,6,0,0,0,5.64-3.33c1.15-2.07,1.49-5.07,1.49-12.43v-48h13.35v48c0,13.58-1.84,20.6-6.56,25-3.56,3.34-8.63,5-15.65,5-16.34,0-22.32-7.6-22.32-28.54V82.68Z"/><path class="cls-1" d="M201.2,82.68h14.73c11.73,0,16.91,1.26,22,5.29,7.13,5.87,10.81,16.91,10.81,32.1,0,16.57-3.91,28.2-11.62,34.52-4.14,3.34-8.74,4.84-15.3,4.84H201.2Zm20,63.28c3.91,0,6.44-1,7.83-3.1,2.07-3.34,3-10.36,3-21.64,0-10.24-1-17.83-2.76-21.28-1.5-2.65-4-3.92-8.06-3.92h-4.6V146Z"/></svg>